<?xml version="1.0" encoding="UTF-8"?>
<svg id="modalWindow_event_copy" data-name="modalWindow_event copy" xmlns="http://www.w3.org/2000/svg" viewBox="0 0 406 382">
  <defs>
    <style>
      .cls-1 {
        fill: #b73b2f;
      }

      .cls-2 {
        fill: #fff;
      }

      .cls-3 {
        stroke: #333;
        stroke-miterlimit: 10;
      }

      .cls-3, .cls-4 {
        fill: #333;
      }

      .cls-5, .cls-6 {
        fill: #999;
      }

      .cls-7 {
        fill: #f2f2f2;
      }

      .cls-6 {
        opacity: .1;
      }
    </style>
  </defs>
  <g>
    <rect id="bg" class="cls-2" x="-.19" y="25" width="406.39" height="357" rx="21.32" ry="21.32"/>
    <g>
      <path class="cls-4" d="m30.43,50.57c-.23.52-.52.99-.87,1.41-.35.42-.76.77-1.21,1.06s-.95.52-1.49.67c-.54.15-1.1.23-1.69.23-.83,0-1.61-.15-2.34-.46-.73-.31-1.36-.73-1.9-1.26-.54-.53-.97-1.16-1.28-1.89s-.47-1.5-.47-2.32.15-1.56.46-2.27c.31-.71.73-1.34,1.26-1.87s1.15-.95,1.87-1.26c.71-.31,1.47-.46,2.27-.46,1.21,0,2.29.3,3.24.91.95.61,1.67,1.46,2.16,2.56h-2.36c-.39-.5-.82-.87-1.29-1.09-.47-.23-1.04-.34-1.7-.34-.53,0-1.03.1-1.5.29s-.86.46-1.2.81c-.34.34-.6.75-.79,1.22-.19.47-.29.97-.29,1.52s.1,1.04.3,1.51c.2.47.48.88.82,1.23.35.35.75.63,1.22.83.46.21.96.31,1.48.31s1.03-.1,1.46-.31c.43-.21.88-.55,1.36-1.03h2.48Z"/>
      <path class="cls-4" d="m31.82,45.21h1.88v1c.33-.39.73-.69,1.21-.89.48-.21,1.01-.31,1.6-.31.62,0,1.18.11,1.7.33.52.22.97.53,1.35.92s.68.86.89,1.4c.21.54.32,1.13.32,1.78s-.11,1.25-.32,1.8-.51,1.03-.89,1.43c-.38.4-.82.71-1.35.94-.52.23-1.09.34-1.71.34-.52,0-.99-.08-1.4-.24s-.82-.41-1.22-.76v3.65h-2.05v-11.39Zm4.44,6.86c.34,0,.66-.07.96-.2.3-.13.56-.32.78-.55.22-.23.39-.5.52-.82.12-.31.18-.65.18-1.01,0-.38-.06-.73-.18-1.05-.12-.32-.3-.59-.52-.82-.23-.23-.49-.41-.79-.54-.3-.13-.63-.19-.99-.19s-.67.07-.97.2c-.3.13-.56.32-.78.55-.22.23-.39.51-.52.83-.12.32-.19.67-.19,1.04s.06.7.19,1.01.31.59.53.82c.23.23.49.41.8.54.31.13.64.19.99.19Z"/>
      <path class="cls-4" d="m50.32,51.22c-.12.4-.32.77-.59,1.1s-.58.62-.94.86c-.36.24-.75.43-1.19.56s-.88.2-1.36.2c-.65,0-1.25-.11-1.82-.34-.56-.23-1.06-.54-1.47-.94-.42-.4-.74-.87-.98-1.41-.24-.54-.35-1.12-.35-1.75s.12-1.21.35-1.76c.23-.55.55-1.03.96-1.43.41-.41.88-.72,1.43-.96.55-.23,1.14-.35,1.77-.35s1.23.12,1.77.35c.54.23,1,.55,1.4.96.39.41.7.89.92,1.45.22.56.33,1.17.33,1.84,0,.16,0,.3-.02.41-.01.11-.03.23-.06.38h-6.61c.12.52.39.94.81,1.23.42.3.93.45,1.55.45.43,0,.79-.06,1.06-.19.28-.13.55-.35.82-.66h2.24Zm-1.8-2.64c-.13-.55-.4-.98-.8-1.26-.4-.29-.92-.43-1.56-.43s-1.12.14-1.53.43-.68.71-.85,1.26h4.73Z"/>
      <path class="cls-4" d="m51.12,51.88h1.31l2.85-6.67h1.79l2.85,6.67h1.31v3.9h-1.46l-.43-2.04h-6.3l-.43,2.04h-1.48v-3.9Zm6.67,0l-1.62-3.85-1.62,3.85h3.24Z"/>
      <path class="cls-4" d="m61.81,49.51c0-.65.11-1.25.32-1.8.22-.55.52-1.02.9-1.43.39-.4.85-.71,1.38-.94.53-.23,1.11-.34,1.74-.34s1.15.11,1.59.32.84.55,1.2,1.02v-1.14h1.88v8.54h-1.88v-1.11c-.41.47-.83.81-1.27,1.01-.44.2-.96.3-1.56.3s-1.2-.11-1.73-.33-.98-.53-1.36-.92c-.38-.4-.68-.86-.89-1.4-.22-.54-.32-1.13-.32-1.78Zm2.07.05c0,.37.06.71.19,1.02.12.31.3.57.52.79.22.22.49.39.8.52s.66.18,1.02.18.71-.06,1.01-.18.56-.3.79-.52c.22-.23.39-.5.51-.81s.18-.66.18-1.04-.06-.75-.19-1.06c-.12-.32-.3-.59-.52-.82-.23-.23-.5-.41-.81-.54-.31-.13-.66-.19-1.03-.19s-.69.07-.99.2-.56.32-.78.55c-.22.24-.39.52-.51.84-.12.32-.19.68-.19,1.07Z"/>
      <path class="cls-4" d="m72.44,51.78h2.05v2.08c0,.65-.18,1.15-.54,1.51-.36.36-.86.54-1.51.54v-1.03c.33-.06.56-.16.7-.29s.21-.32.21-.55v-.28h-.91v-1.97Z"/>
      <path class="cls-4" d="m80.2,51.95l4.05-3.84c.47-.44.81-.84,1.01-1.19.2-.35.3-.72.3-1.09,0-.26-.04-.49-.12-.71-.08-.22-.2-.4-.35-.56s-.32-.29-.52-.38c-.2-.09-.42-.14-.66-.14-.53,0-.96.21-1.29.62s-.49.96-.49,1.63h-2.02c0-.64.09-1.21.26-1.72s.43-.94.76-1.29c.33-.35.73-.63,1.19-.82.47-.2.99-.29,1.56-.29.53,0,1.03.09,1.48.28.45.19.85.44,1.18.78.33.33.59.73.78,1.18s.28.94.28,1.46c0,.35-.04.68-.11.98-.07.3-.2.61-.37.91s-.4.61-.68.92c-.28.31-.63.66-1.05,1.04l-2.33,2.11h4.49v1.93h-7.37v-1.8Z"/>
      <path class="cls-4" d="m95.12,42.36l-2.73,4.05c.17-.06.33-.1.45-.12.13-.02.29-.03.47-.03.45,0,.87.09,1.26.27s.72.43.99.75c.28.32.5.7.66,1.14.16.44.24.92.24,1.45,0,.6-.1,1.14-.29,1.64-.19.5-.46.93-.81,1.29-.35.37-.76.65-1.23.85-.47.2-1,.3-1.57.3s-1.11-.1-1.6-.29c-.49-.19-.91-.47-1.26-.82s-.63-.77-.83-1.25c-.2-.48-.3-1.01-.3-1.57,0-.28.02-.54.06-.79.04-.25.1-.5.19-.75.09-.25.2-.51.35-.78.14-.27.32-.56.52-.86l2.98-4.47h2.45Zm-2.54,9.71c.54,0,.99-.18,1.33-.55.34-.37.51-.85.51-1.45s-.18-1.08-.53-1.46-.82-.56-1.41-.56c-.27,0-.51.05-.74.15s-.42.24-.59.42c-.16.17-.29.38-.39.63-.09.25-.14.52-.14.82s.05.55.15.8c.1.25.23.46.4.64.17.18.38.32.62.42.24.1.51.15.79.15Z"/>
      <path class="cls-4" d="m101.98,45.21h2.34l2.57,4.38,2.57-4.38h2.34v8.54h-2.05v-5.64l-2.27,3.87h-1.2l-2.27-3.87v5.64h-2.05v-8.54Z"/>
      <path class="cls-4" d="m113.08,49.51c0-.65.11-1.25.32-1.8.22-.55.52-1.02.9-1.43.39-.4.85-.71,1.38-.94.53-.23,1.11-.34,1.74-.34s1.15.11,1.59.32.84.55,1.2,1.02v-1.14h1.88v8.54h-1.88v-1.11c-.41.47-.83.81-1.27,1.01-.44.2-.96.3-1.56.3s-1.2-.11-1.73-.33-.98-.53-1.36-.92c-.38-.4-.68-.86-.89-1.4-.22-.54-.32-1.13-.32-1.78Zm2.07.05c0,.37.06.71.19,1.02.12.31.3.57.52.79.22.22.49.39.8.52s.66.18,1.02.18.71-.06,1.01-.18.56-.3.79-.52c.22-.23.39-.5.51-.81s.18-.66.18-1.04-.06-.75-.19-1.06c-.12-.32-.3-.59-.52-.82-.23-.23-.5-.41-.81-.54-.31-.13-.66-.19-1.03-.19s-.69.07-.99.2-.56.32-.78.55c-.22.24-.39.52-.51.84-.12.32-.19.68-.19,1.07Z"/>
      <path class="cls-4" d="m123.77,45.21h1.88v1c.33-.39.73-.69,1.21-.89.48-.21,1.01-.31,1.6-.31.62,0,1.18.11,1.7.33.52.22.97.53,1.35.92s.68.86.89,1.4c.21.54.32,1.13.32,1.78s-.11,1.25-.32,1.8-.51,1.03-.89,1.43c-.38.4-.82.71-1.35.94-.52.23-1.09.34-1.71.34-.52,0-.99-.08-1.4-.24s-.82-.41-1.22-.76v3.65h-2.05v-11.39Zm4.44,6.86c.34,0,.66-.07.96-.2.3-.13.56-.32.78-.55.22-.23.39-.5.52-.82.12-.31.18-.65.18-1.01,0-.38-.06-.73-.18-1.05-.12-.32-.3-.59-.52-.82-.23-.23-.49-.41-.79-.54-.3-.13-.63-.19-.99-.19s-.67.07-.97.2c-.3.13-.56.32-.78.55-.22.23-.39.51-.52.83-.12.32-.19.67-.19,1.04s.06.7.19,1.01.31.59.53.82c.23.23.49.41.8.54.31.13.64.19.99.19Z"/>
      <path class="cls-4" d="m135.4,47.08h-1.99v-1.87h6.03v1.87h-1.99v6.67h-2.05v-6.67Z"/>
      <path class="cls-4" d="m140.15,49.51c0-.65.11-1.25.32-1.8.22-.55.52-1.02.9-1.43.39-.4.85-.71,1.38-.94.53-.23,1.11-.34,1.74-.34s1.15.11,1.59.32.84.55,1.2,1.02v-1.14h1.88v8.54h-1.88v-1.11c-.41.47-.83.81-1.27,1.01-.44.2-.96.3-1.56.3s-1.2-.11-1.73-.33-.98-.53-1.36-.92c-.38-.4-.68-.86-.89-1.4-.22-.54-.32-1.13-.32-1.78Zm2.07.05c0,.37.06.71.19,1.02.12.31.3.57.52.79.22.22.49.39.8.52s.66.18,1.02.18.71-.06,1.01-.18.56-.3.79-.52c.22-.23.39-.5.51-.81s.18-.66.18-1.04-.06-.75-.19-1.06c-.12-.32-.3-.59-.52-.82-.23-.23-.5-.41-.81-.54-.31-.13-.66-.19-1.03-.19s-.69.07-.99.2-.56.32-.78.55c-.22.24-.39.52-.51.84-.12.32-.19.68-.19,1.07Z"/>
    </g>
    <g>
      <rect class="cls-4" x="324.62" y="353" width="56.99" height="20.05" rx="4.11" ry="4.11"/>
      <g>
        <path class="cls-2" d="m335.62,364.67c-.31.6-.71,1.07-1.22,1.38-.51.32-1.1.48-1.76.48-.48,0-.93-.09-1.35-.26s-.78-.41-1.09-.71c-.31-.3-.55-.65-.72-1.07-.18-.41-.26-.85-.26-1.33s.09-.92.26-1.33c.17-.41.41-.77.71-1.07.3-.3.65-.54,1.06-.71s.85-.26,1.33-.26c.34,0,.66.04.97.13s.59.21.85.37c.26.16.49.36.7.59.21.23.37.49.5.78h-.94c-.25-.37-.54-.64-.87-.82-.33-.18-.73-.26-1.19-.26-.36,0-.69.07-1,.2s-.58.31-.81.54c-.23.23-.41.5-.54.81-.13.31-.19.66-.19,1.03s.07.69.2,1.01c.14.31.32.59.55.82.23.23.5.42.81.55s.64.2.99.2c.41,0,.78-.08,1.1-.25.32-.17.64-.44.94-.82h.96Z"/>
        <path class="cls-2" d="m336.29,364c0-.36.07-.7.2-1.01.13-.31.31-.57.54-.8.23-.23.5-.4.81-.53.31-.13.66-.19,1.03-.19s.68.06.99.19c.3.13.57.31.8.54.23.23.4.5.53.8.13.31.19.64.19,1.01s-.06.69-.19,1c-.13.3-.3.57-.53.8-.23.23-.49.4-.8.53-.31.13-.63.19-.99.19s-.7-.06-1.02-.19c-.31-.13-.59-.31-.82-.53-.23-.23-.41-.49-.55-.8-.13-.31-.2-.64-.2-1Zm2.57,1.77c.24,0,.46-.04.67-.13.21-.09.38-.21.53-.37.15-.16.27-.34.35-.56s.13-.45.13-.7-.04-.5-.13-.71c-.08-.22-.21-.4-.36-.56-.16-.16-.34-.28-.55-.37-.21-.09-.44-.14-.69-.14s-.46.04-.67.14c-.21.09-.38.22-.54.37-.15.16-.27.35-.36.56-.08.22-.13.45-.13.7s.04.49.13.7c.09.22.21.41.37.56.16.16.34.28.55.37.21.09.44.13.69.13Z"/>
        <path class="cls-2" d="m343.45,363.94l-1.61-2.36h.93l1.16,1.72,1.15-1.72h.93l-1.61,2.36,1.7,2.47h-.97l-1.21-1.84-1.21,1.84h-.97l1.69-2.47Z"/>
        <path class="cls-2" d="m346.69,361.58h.79v.74c.2-.28.45-.49.76-.64.31-.14.65-.21,1.04-.21.36,0,.69.06.99.19s.57.3.79.53c.22.22.4.49.52.8.13.31.19.64.19,1.01s-.06.69-.19,1c-.13.31-.31.58-.53.81-.22.23-.49.4-.8.53s-.64.19-1,.19c-.73,0-1.31-.27-1.74-.82v2.38h-.83v-6.5Zm2.53,4.19c.25,0,.47-.04.68-.13.21-.09.39-.21.55-.37.16-.16.28-.34.37-.56s.13-.45.13-.7-.04-.5-.13-.72c-.09-.22-.21-.41-.37-.57-.16-.16-.34-.28-.55-.37s-.45-.13-.71-.13c-.24,0-.47.04-.67.14-.21.09-.39.22-.55.37-.16.16-.28.35-.37.56-.09.22-.13.45-.13.7s.04.49.13.7c.09.21.21.4.37.56.16.16.34.28.56.37.21.09.44.14.69.14Z"/>
        <path class="cls-2" d="m352.43,364.01c0-.36.06-.7.19-1.01.13-.31.3-.58.53-.81.23-.23.49-.4.8-.53.31-.13.64-.19,1-.19.4,0,.75.07,1.03.21.28.14.54.37.77.69v-.78h.79v4.83h-.79v-.77c-.25.32-.52.54-.79.68-.27.14-.6.21-.99.21-.36,0-.7-.06-1.01-.19-.31-.13-.58-.3-.81-.52-.23-.22-.4-.49-.53-.8-.13-.31-.19-.64-.19-1.01Zm.84,0c0,.25.05.49.14.7.09.21.22.4.37.56.16.16.34.28.56.37.21.09.44.14.69.14s.47-.04.68-.14c.21-.09.39-.21.54-.37.15-.16.27-.35.36-.56.08-.22.13-.45.13-.7s-.04-.49-.13-.71c-.09-.21-.21-.4-.37-.56-.16-.16-.34-.28-.55-.37-.21-.09-.45-.13-.7-.13s-.47.04-.67.14c-.21.09-.39.22-.55.38-.16.16-.28.35-.37.57-.09.22-.13.45-.13.7Z"/>
        <path class="cls-2" d="m358.6,361.58h.83v2.01h2.64v-2.01h.82v4.83h-.82v-2.08h-2.64v2.08h-.83v-4.83Z"/>
        <path class="cls-2" d="m363.94,361.58h.82v3.66l2.68-3.66h.83v4.83h-.82v-3.67l-2.68,3.67h-.83v-4.83Z"/>
        <path class="cls-2" d="m370.15,362.33h-1.22v-.75h3.26v.75h-1.21v4.08h-.83v-4.08Z"/>
        <path class="cls-2" d="m372.83,361.58h.83v1.84h1.27c.25,0,.47.04.67.11s.38.18.52.31c.15.13.26.29.34.47.08.19.12.39.12.6s-.04.42-.12.6c-.08.18-.2.34-.34.48-.15.13-.32.23-.52.31-.2.07-.43.11-.67.11h-2.09v-4.83Zm1.95,4.08c.32,0,.56-.06.73-.19.17-.13.25-.31.25-.56s-.08-.43-.25-.56c-.17-.13-.41-.19-.73-.19h-1.13v1.5h1.13Z"/>
      </g>
    </g>
    <g>
      <rect class="cls-6" x="19.93" y="75" width="74.92" height="16.14" rx="4.23" ry="4.23"/>
      <g>
        <path class="cls-4" d="m24.62,83.18c0-.38.07-.73.22-1.06.14-.33.34-.62.59-.86.25-.25.55-.44.89-.58.34-.14.71-.21,1.1-.21.37,0,.72.07,1.05.22.33.14.62.34.86.58.25.25.44.53.58.86.14.33.22.68.22,1.05s-.07.72-.22,1.06c-.14.33-.34.62-.59.86-.25.24-.54.44-.87.58s-.69.21-1.07.21-.74-.07-1.08-.21-.63-.34-.88-.58c-.25-.25-.45-.53-.6-.86s-.22-.68-.22-1.05Zm.68,0c0,.28.05.55.16.8.11.25.26.47.45.66.19.19.41.34.66.45.25.11.52.16.81.16s.56-.05.81-.16c.25-.11.47-.26.66-.44.19-.19.33-.4.44-.66.11-.25.16-.52.16-.81s-.05-.57-.16-.82c-.11-.25-.26-.48-.45-.66s-.41-.33-.67-.44c-.25-.11-.53-.16-.82-.16s-.54.06-.79.17c-.25.11-.47.26-.66.45-.19.19-.33.41-.44.66-.11.25-.16.52-.16.8Z"/>
        <path class="cls-4" d="m34.71,84.6c-.41.86-1.05,1.28-1.91,1.28-.3,0-.57-.05-.83-.16-.25-.11-.48-.25-.67-.44s-.34-.4-.45-.65c-.11-.25-.16-.52-.16-.8s.05-.55.16-.79c.11-.25.25-.46.44-.64.19-.18.41-.33.66-.43.25-.1.52-.16.81-.16.45,0,.85.12,1.19.35s.6.55.75.96h-.74c-.26-.47-.67-.7-1.2-.7-.2,0-.38.04-.55.11s-.32.17-.44.3c-.12.13-.22.28-.29.45s-.11.36-.11.56.04.39.11.57.17.33.3.45c.13.13.28.23.45.3.17.07.36.11.56.11.25,0,.47-.05.65-.16.18-.1.36-.28.54-.52h.75Z"/>
        <path class="cls-4" d="m35.38,81.91h.67v1.62h2.13v-1.62h.66v3.89h-.66v-1.67h-2.13v1.67h-.67v-3.89Z"/>
        <path class="cls-4" d="m39.52,83.85c0-.29.05-.56.16-.81.11-.25.25-.46.44-.64s.4-.32.66-.43c.25-.1.53-.16.83-.16s.55.05.79.16c.25.1.46.25.64.43.18.18.32.4.43.65.1.25.15.52.15.81s-.05.56-.15.8c-.1.25-.24.46-.43.64s-.4.32-.64.43c-.25.1-.51.16-.79.16s-.57-.05-.82-.16c-.25-.1-.47-.25-.66-.43s-.33-.4-.44-.64c-.11-.25-.16-.52-.16-.8Zm2.07,1.42c.19,0,.37-.04.54-.11.17-.07.31-.17.43-.3.12-.13.21-.28.28-.45.07-.17.1-.36.1-.56s-.03-.4-.1-.57-.17-.33-.29-.45c-.12-.13-.27-.23-.44-.3-.17-.07-.35-.11-.55-.11s-.37.04-.54.11c-.17.07-.31.17-.43.3-.12.13-.22.28-.29.45-.07.17-.1.36-.1.57s.04.39.11.57c.07.17.17.33.29.45.12.13.27.23.44.3.17.07.35.11.55.11Z"/>
        <path class="cls-4" d="m44.3,81.91h1.57c.43,0,.77.09,1.02.28.25.19.37.45.37.79,0,.15-.05.3-.15.44-.1.14-.22.24-.36.3.22.08.39.2.5.35s.17.33.17.53c0,.17-.04.33-.11.47s-.17.27-.29.38c-.12.11-.27.19-.44.25-.17.06-.36.09-.56.09h-1.73v-3.89Zm1.52,1.59c.26,0,.46-.04.6-.13.14-.09.21-.21.21-.38,0-.32-.27-.48-.81-.48h-.85v.99h.85Zm.1,1.7c.27,0,.48-.05.63-.15.15-.1.22-.25.22-.44s-.07-.32-.22-.42c-.14-.1-.36-.14-.63-.14h-.95v1.15h.95Z"/>
        <path class="cls-4" d="m48.11,81.91h.67v1.62h2.13v-1.62h.66v3.89h-.66v-1.67h-2.13v1.67h-.67v-3.89Z"/>
        <path class="cls-4" d="m52.25,83.85c0-.29.05-.56.16-.81.11-.25.25-.46.44-.64s.4-.32.66-.43c.25-.1.53-.16.83-.16s.55.05.79.16c.25.1.46.25.64.43.18.18.32.4.43.65.1.25.15.52.15.81s-.05.56-.15.8c-.1.25-.24.46-.43.64s-.4.32-.64.43c-.25.1-.51.16-.79.16s-.57-.05-.82-.16c-.25-.1-.47-.25-.66-.43s-.33-.4-.44-.64c-.11-.25-.16-.52-.16-.8Zm2.07,1.42c.19,0,.37-.04.54-.11.17-.07.31-.17.43-.3.12-.13.21-.28.28-.45.07-.17.1-.36.1-.56s-.03-.4-.1-.57-.17-.33-.29-.45c-.12-.13-.27-.23-.44-.3-.17-.07-.35-.11-.55-.11s-.37.04-.54.11c-.17.07-.31.17-.43.3-.12.13-.22.28-.29.45-.07.17-.1.36-.1.57s.04.39.11.57c.07.17.17.33.29.45.12.13.27.23.44.3.17.07.35.11.55.11Z"/>
        <path class="cls-4" d="m57.03,81.91h.66v2.95l2.16-2.95h.67v3.89h-.66v-2.96l-2.16,2.96h-.67v-3.89Zm1.23-1.4c0,.38.17.57.52.57s.52-.19.52-.57h.59c-.05.3-.17.53-.36.69-.19.16-.44.23-.75.23s-.56-.08-.75-.23c-.19-.16-.31-.38-.36-.69h.59Z"/>
        <path class="cls-4" d="m63.99,82.51h-.98v-.6h2.62v.6h-.97v3.29h-.67v-3.29Z"/>
        <path class="cls-4" d="m69.95,84.55c-.07.2-.16.38-.29.54s-.27.3-.44.42c-.17.12-.35.21-.54.27-.2.06-.4.1-.61.1-.29,0-.56-.05-.81-.16-.25-.11-.47-.25-.66-.44s-.34-.4-.44-.65c-.11-.25-.16-.52-.16-.8s.05-.55.16-.79c.11-.25.25-.46.43-.64.18-.18.4-.33.64-.43.25-.1.51-.16.79-.16s.55.05.8.16c.25.11.46.25.65.43.18.18.33.4.44.64.11.25.16.51.16.79,0,.09,0,.18-.03.26h-3.34c.01.17.06.33.14.47s.18.27.3.37c.12.11.26.19.42.25.16.06.33.09.51.09.26,0,.49-.06.7-.19.21-.13.37-.3.49-.53h.7Zm-.56-1.04c-.08-.34-.24-.61-.48-.8s-.53-.29-.88-.29-.63.1-.87.29c-.24.2-.4.46-.47.8h2.7Z"/>
        <path class="cls-4" d="m70.73,81.91h.67v1.75l1.63-1.75h.84l-1.81,1.9,1.84,1.99h-.86l-1.63-1.82v1.82h-.67v-3.89Z"/>
        <path class="cls-4" d="m78.2,84.6c-.41.86-1.05,1.28-1.91,1.28-.3,0-.57-.05-.83-.16-.25-.11-.48-.25-.67-.44s-.34-.4-.45-.65c-.11-.25-.16-.52-.16-.8s.05-.55.16-.79c.11-.25.25-.46.44-.64.19-.18.41-.33.66-.43.25-.1.52-.16.81-.16.45,0,.85.12,1.19.35s.6.55.75.96h-.74c-.26-.47-.67-.7-1.2-.7-.2,0-.38.04-.55.11s-.32.17-.44.3c-.12.13-.22.28-.29.45s-.11.36-.11.56.04.39.11.57.17.33.3.45c.13.13.28.23.45.3.17.07.36.11.56.11.25,0,.47-.05.65-.16.18-.1.36-.28.54-.52h.75Z"/>
        <path class="cls-4" d="m79.53,82.51h-.98v-.6h2.62v.6h-.97v3.29h-.67v-3.29Z"/>
      </g>
    </g>
    <g>
      <rect class="cls-4" x="104.15" y="75" width="16.3" height="16.14" rx="1.97" ry="1.97"/>
      <path class="cls-7" d="m109.29,78.59h1.77c1.14,0,1.97.18,2.51.55.54.37.8.95.8,1.74,0,.41-.07.74-.22.99-.14.24-.39.46-.74.63.52.21.9.48,1.12.82.23.33.34.77.34,1.32,0,.82-.29,1.46-.86,1.9-.57.44-1.39.67-2.44.67h-2.3v-8.62Zm2.62,3.32c.27,0,.48-.08.64-.24.15-.16.23-.38.23-.65,0-.58-.41-.88-1.24-.88h-.65v1.76h1.03Zm-.23,3.77c.56,0,.97-.09,1.22-.26.25-.17.38-.45.38-.83,0-.34-.1-.61-.3-.82s-.47-.3-.82-.3h-1.27v2.2h.79Z"/>
    </g>
    <rect class="cls-4" x="158" y="114" width="31" height="10"/>
    <g>
      <rect class="cls-6" x="18.85" y="102.49" width="363.15" height="242.51" rx="10.55" ry="10.55"/>
      <g>
        <path class="cls-4" d="m40.68,120.68c-.75,1.39-1.89,2.09-3.41,2.09-.56,0-1.08-.1-1.56-.29-.48-.2-.89-.46-1.24-.81s-.62-.75-.82-1.22c-.2-.47-.3-.97-.3-1.52s.1-1.08.29-1.55c.2-.48.46-.89.81-1.23.34-.35.75-.62,1.23-.81.48-.2.99-.29,1.54-.29.38,0,.75.05,1.11.14.35.09.68.23.98.41.3.18.56.4.79.65.23.26.42.54.56.87h-.84c-.58-.92-1.43-1.38-2.57-1.38-.44,0-.86.08-1.24.24-.38.16-.72.38-1,.67s-.5.62-.66,1c-.16.39-.24.81-.24,1.26s.08.85.25,1.24c.16.39.39.72.68,1.01.29.29.62.51,1.01.68s.79.25,1.22.25c.53,0,1-.11,1.41-.34.42-.23.81-.58,1.18-1.07h.83Z"/>
        <path class="cls-4" d="m47.15,120.82c-.1.29-.24.55-.42.79-.18.24-.39.44-.62.62s-.49.3-.77.4c-.28.09-.57.14-.87.14-.41,0-.79-.08-1.15-.23-.35-.15-.66-.36-.92-.62-.26-.26-.47-.57-.62-.92-.15-.35-.23-.74-.23-1.15s.07-.78.22-1.13c.15-.35.35-.65.61-.91s.56-.46.91-.61c.35-.15.72-.22,1.12-.22s.77.08,1.13.23c.35.15.66.36.93.61.27.26.48.55.63.9.15.34.23.71.23,1.09,0,.05,0,.11,0,.16,0,.05-.02.1-.03.16h-4.99c.01.27.08.52.2.76.12.24.28.45.47.63.19.18.42.32.67.42s.53.15.81.15c.21,0,.41-.03.61-.09s.38-.15.55-.26c.17-.11.32-.24.45-.4.13-.15.24-.33.32-.51h.78Zm-.61-1.37c-.13-.55-.38-.99-.76-1.3-.38-.32-.84-.47-1.38-.47-.26,0-.51.04-.74.13-.23.08-.44.21-.62.36-.18.16-.33.35-.46.57s-.21.46-.27.72h4.23Z"/>
        <path class="cls-4" d="m48.32,117.12h2.83v.68h-2.08v4.85h-.75v-5.52Z"/>
        <path class="cls-4" d="m51.69,119.88c0-.42.07-.8.22-1.16.14-.36.35-.66.61-.92s.57-.46.93-.6c.36-.14.75-.22,1.17-.22s.78.07,1.13.22c.35.15.65.35.9.61.25.26.45.57.6.92.14.35.22.74.22,1.16s-.07.79-.21,1.15c-.14.35-.34.66-.59.91-.25.26-.55.46-.89.6-.35.15-.72.22-1.13.22-.42,0-.82-.07-1.18-.22-.36-.14-.67-.35-.93-.61-.26-.26-.47-.56-.62-.92-.15-.35-.22-.74-.22-1.15Zm2.93,2.2c.3,0,.58-.05.84-.16.26-.11.47-.26.66-.45.18-.19.33-.42.43-.69.1-.27.16-.56.16-.88s-.05-.62-.16-.9c-.1-.28-.25-.51-.44-.71s-.42-.35-.68-.46c-.26-.11-.55-.17-.86-.17s-.58.06-.84.17c-.26.11-.48.27-.67.46-.19.2-.33.44-.44.71-.11.27-.16.57-.16.88s.05.61.16.87c.11.27.26.5.45.69s.43.35.69.46c.27.11.55.17.86.17Z"/>
        <path class="cls-4" d="m57.59,121.96h.72l2.07-4.85h.85l2.07,4.85h.72v1.95h-.52l-.27-1.27h-4.85l-.27,1.27h-.52v-1.95Zm4.92,0l-1.71-4-1.71,4h3.41Z"/>
        <path class="cls-4" d="m64.82,117.12h.75v2.37h3.31v-2.37h.75v5.52h-.75v-2.47h-3.31v2.47h-.75v-5.52Z"/>
        <path class="cls-4" d="m71.95,120.35c-.42-.09-.75-.28-.98-.57-.24-.28-.36-.62-.36-1.02,0-.24.05-.46.14-.67.09-.2.22-.38.39-.52s.36-.26.6-.34c.23-.08.49-.12.77-.12h2.22v5.52h-.75v-2.23h-1.22l-1.56,2.23h-.85l1.6-2.29Zm2.03-2.56h-1.28c-.89,0-1.33.32-1.33.97s.44.97,1.33.97h1.28v-1.94Z"/>
        <path class="cls-4" d="m78.8,117.12h1.16l1.93,4.48,1.93-4.48h1.16v5.52h-.75v-4.71l-2.02,4.71h-.65l-2.02-4.71v4.71h-.75v-5.52Z"/>
        <path class="cls-4" d="m86.26,117.12h.75v2.37h3.31v-2.37h.75v5.52h-.75v-2.47h-3.31v2.47h-.75v-5.52Z"/>
        <path class="cls-4" d="m97.73,120.82c-.1.29-.24.55-.42.79-.18.24-.39.44-.62.62s-.49.3-.77.4c-.28.09-.57.14-.87.14-.41,0-.79-.08-1.15-.23-.35-.15-.66-.36-.92-.62-.26-.26-.47-.57-.62-.92-.15-.35-.23-.74-.23-1.15s.07-.78.22-1.13c.15-.35.35-.65.61-.91s.56-.46.91-.61c.35-.15.72-.22,1.12-.22s.77.08,1.13.23c.35.15.66.36.93.61.27.26.48.55.63.9.15.34.23.71.23,1.09,0,.05,0,.11,0,.16,0,.05-.02.1-.03.16h-4.99c.01.27.08.52.2.76.12.24.28.45.47.63.19.18.42.32.67.42s.53.15.81.15c.21,0,.41-.03.61-.09s.38-.15.55-.26c.17-.11.32-.24.45-.4.13-.15.24-.33.32-.51h.78Zm-.61-1.37c-.13-.55-.38-.99-.76-1.3-.38-.32-.84-.47-1.38-.47-.26,0-.51.04-.74.13-.23.08-.44.21-.62.36-.18.16-.33.35-.46.57s-.21.46-.27.72h4.23Z"/>
        <path class="cls-4" d="m101.7,117.12h4.76v5.52h-.75v-4.85h-3.26v4.85h-.75v-5.52Z"/>
        <path class="cls-4" d="m107.73,117.12h.75v.95c.24-.36.54-.63.9-.81.37-.18.79-.27,1.27-.27.41,0,.79.07,1.15.22.35.15.66.35.92.61s.47.57.62.92.22.74.22,1.15-.07.78-.22,1.14-.35.66-.62.92c-.26.26-.57.46-.93.61s-.74.22-1.16.22c-.46,0-.88-.09-1.24-.27s-.67-.45-.91-.81v2.89h-.75v-7.46Zm2.89,4.97c.31,0,.6-.06.86-.17.27-.11.5-.26.69-.46s.35-.43.46-.69c.11-.27.17-.55.17-.86s-.06-.62-.17-.9c-.11-.28-.26-.51-.46-.71s-.43-.35-.7-.46c-.27-.11-.57-.17-.89-.17-.3,0-.59.06-.85.17-.26.12-.49.27-.69.47s-.35.43-.46.7c-.11.27-.17.56-.17.87s.06.6.17.87c.11.27.27.5.46.7.2.2.43.35.7.46.27.12.55.17.86.17Z"/>
        <path class="cls-4" d="m114.62,117.12h.75v4.46l3.36-4.46h.75v5.52h-.75v-4.46l-3.36,4.46h-.75v-5.52Z"/>
        <path class="cls-4" d="m126.25,121.01c-.32.6-.7,1.04-1.14,1.33-.44.29-.96.43-1.57.43-.42,0-.82-.07-1.19-.22-.37-.15-.69-.35-.95-.62-.27-.26-.48-.57-.64-.92-.16-.35-.23-.73-.23-1.15s.08-.78.23-1.13c.15-.35.36-.65.63-.91s.58-.46.94-.61c.36-.15.75-.22,1.16-.22.32,0,.62.04.9.13s.54.2.78.36c.24.15.45.34.63.57.19.23.33.48.44.75h-.84c-.22-.36-.49-.64-.81-.83s-.7-.29-1.11-.29c-.31,0-.6.06-.86.17-.27.12-.5.27-.69.47-.2.2-.35.43-.46.7-.11.27-.17.56-.17.87s.06.6.17.86c.11.27.27.5.47.7.2.2.44.35.71.47.27.12.56.17.87.17.4,0,.74-.08,1.03-.25.29-.16.57-.44.86-.82h.85Z"/>
        <path class="cls-4" d="m127.29,117.12h.75v2.37h3.31v-2.37h.75v5.52h-.75v-2.47h-3.31v2.47h-.75v-5.52Z"/>
        <path class="cls-4" d="m133.37,117.12h.75v4.46l3.36-4.46h.75v5.52h-.75v-4.46l-3.36,4.46h-.75v-5.52Z"/>
        <path class="cls-4" d="m141.28,117.12h.84l2.37,5.52h-.79l-2-4.68-2.01,4.68h-.79l2.37-5.52Z"/>
        <path class="cls-4" d="m150.22,121.01c-.32.6-.7,1.04-1.14,1.33-.44.29-.96.43-1.57.43-.42,0-.82-.07-1.19-.22-.37-.15-.69-.35-.95-.62-.27-.26-.48-.57-.64-.92-.16-.35-.23-.73-.23-1.15s.08-.78.23-1.13c.15-.35.36-.65.63-.91s.58-.46.94-.61c.36-.15.75-.22,1.16-.22.32,0,.62.04.9.13s.54.2.78.36c.24.15.45.34.63.57.19.23.33.48.44.75h-.84c-.22-.36-.49-.64-.81-.83s-.7-.29-1.11-.29c-.31,0-.6.06-.86.17-.27.12-.5.27-.69.47-.2.2-.35.43-.46.7-.11.27-.17.56-.17.87s.06.6.17.86c.11.27.27.5.47.7.2.2.44.35.71.47.27.12.56.17.87.17.4,0,.74-.08,1.03-.25.29-.16.57-.44.86-.82h.85Z"/>
        <path class="cls-4" d="m152.3,120.35c-.42-.09-.75-.28-.98-.57-.24-.28-.36-.62-.36-1.02,0-.24.05-.46.14-.67.09-.2.22-.38.39-.52s.36-.26.6-.34c.23-.08.49-.12.77-.12h2.22v5.52h-.75v-2.23h-1.22l-1.56,2.23h-.85l1.6-2.29Zm2.03-2.56h-1.28c-.89,0-1.33.32-1.33.97s.44.97,1.33.97h1.28v-1.94Z"/>
        <path class="cls-5" d="m158.81,119.85c0-.41.08-.79.23-1.15s.37-.67.64-.93c.27-.27.59-.47.95-.63s.76-.23,1.18-.23.79.08,1.15.23c.36.16.67.37.94.63.27.27.48.58.63.94.15.36.23.74.23,1.14s-.08.78-.23,1.14c-.16.35-.37.66-.64.92-.27.26-.58.47-.94.63-.36.15-.75.23-1.16.23s-.8-.08-1.16-.23c-.36-.16-.68-.36-.95-.63-.27-.26-.48-.57-.64-.92s-.23-.73-.23-1.14Zm2.97,1.69c.22,0,.43-.04.63-.13.2-.09.37-.21.52-.36s.26-.33.35-.54c.08-.21.13-.42.13-.65,0-.24-.04-.47-.13-.67-.08-.21-.2-.38-.35-.54s-.32-.28-.52-.36c-.2-.09-.42-.13-.65-.13-.22,0-.42.05-.62.14s-.37.21-.51.36c-.15.15-.26.33-.34.54-.08.21-.13.43-.13.66s.04.46.13.66c.08.21.2.38.35.54.15.16.32.28.52.36.2.09.4.13.63.13Z"/>
        <path class="cls-5" d="m168.55,120.63c-.26.05-.47.09-.65.11-.18.02-.37.02-.58.02-.61,0-1.09-.18-1.42-.55s-.5-.88-.5-1.54v-1.63h1.34v1.63c0,.34.06.57.19.69s.37.18.74.18c.3,0,.59-.03.88-.09v-2.4h1.34v5.6h-1.34v-2.01Z"/>
        <path class="cls-5" d="m176.41,120.98c-.08.26-.21.5-.38.72s-.38.41-.62.57c-.24.16-.49.28-.78.37-.28.09-.58.13-.89.13-.42,0-.82-.07-1.19-.22s-.69-.35-.96-.62c-.27-.26-.49-.57-.64-.92s-.23-.73-.23-1.15.08-.79.23-1.16c.15-.36.36-.67.63-.94.27-.27.58-.47.94-.63s.75-.23,1.16-.23.8.08,1.16.23.66.36.91.63c.26.27.46.58.6.95.15.37.22.77.22,1.21,0,.11,0,.2-.01.27,0,.07-.02.15-.04.25h-4.33c.08.34.26.61.53.81.27.2.61.29,1.02.29.28,0,.52-.04.7-.13.18-.08.36-.23.54-.43h1.46Zm-1.18-1.73c-.09-.36-.26-.64-.53-.83-.26-.19-.6-.28-1.02-.28s-.74.09-1,.28-.45.46-.56.83h3.1Z"/>
        <path class="cls-5" d="m177.38,117.04h1.34v2.16h2.46v-2.16h1.34v5.6h-1.34v-2.21h-2.46v2.21h-1.34v-5.6Z"/>
        <path class="cls-5" d="m183.63,117.04h1.34v1.92h1.12c.28,0,.53.05.77.14.24.09.44.22.62.38.17.16.31.36.41.58.1.23.15.47.15.73s-.05.51-.15.73c-.1.23-.23.42-.41.58-.18.16-.38.29-.62.38-.24.09-.49.14-.77.14h-2.46v-5.6Zm2.37,4.37c.2,0,.36-.06.48-.17.13-.12.19-.26.19-.45s-.06-.33-.19-.44c-.13-.12-.29-.17-.48-.17h-1.03v1.23h1.03Z"/>
        <path class="cls-4" d="m191.72,117.12h.75v4.46l3.36-4.46h.75v5.52h-.75v-4.46l-3.36,4.46h-.75v-5.52Z"/>
        <path class="cls-4" d="m197.85,117.12h.75v2.37h3.31v-2.37h.75v5.52h-.75v-2.47h-3.31v2.47h-.75v-5.52Z"/>
        <path class="cls-4" d="m204.87,117.79h-1.45v-.68h3.64v.68h-1.43v4.85h-.75v-4.85Z"/>
        <path class="cls-4" d="m213.2,120.82c-.1.29-.24.55-.42.79-.18.24-.39.44-.62.62s-.49.3-.77.4c-.28.09-.57.14-.87.14-.41,0-.79-.08-1.15-.23-.35-.15-.66-.36-.92-.62-.26-.26-.47-.57-.62-.92-.15-.35-.23-.74-.23-1.15s.07-.78.22-1.13c.15-.35.35-.65.61-.91s.56-.46.91-.61c.35-.15.72-.22,1.12-.22s.77.08,1.13.23c.35.15.66.36.93.61.27.26.48.55.63.9.15.34.23.71.23,1.09,0,.05,0,.11,0,.16,0,.05-.02.1-.03.16h-4.99c.01.27.08.52.2.76.12.24.28.45.47.63.19.18.42.32.67.42s.53.15.81.15c.21,0,.41-.03.61-.09s.38-.15.55-.26c.17-.11.32-.24.45-.4.13-.15.24-.33.32-.51h.78Zm-.61-1.37c-.13-.55-.38-.99-.76-1.3-.38-.32-.84-.47-1.38-.47-.26,0-.51.04-.74.13-.23.08-.44.21-.62.36-.18.16-.33.35-.46.57s-.21.46-.27.72h4.23Z"/>
        <path class="cls-4" d="m214.37,117.12h.75v.95c.24-.36.54-.63.9-.81.37-.18.79-.27,1.27-.27.41,0,.79.07,1.15.22.35.15.66.35.92.61s.47.57.62.92.22.74.22,1.15-.07.78-.22,1.14-.35.66-.62.92c-.26.26-.57.46-.93.61s-.74.22-1.16.22c-.46,0-.88-.09-1.24-.27s-.67-.45-.91-.81v2.89h-.75v-7.46Zm2.89,4.97c.31,0,.6-.06.86-.17.27-.11.5-.26.69-.46s.35-.43.46-.69c.11-.27.17-.55.17-.86s-.06-.62-.17-.9c-.11-.28-.26-.51-.46-.71s-.43-.35-.7-.46c-.27-.11-.57-.17-.89-.17-.3,0-.59.06-.85.17-.26.12-.49.27-.69.47s-.35.43-.46.7c-.11.27-.17.56-.17.87s.06.6.17.87c.11.27.27.5.46.7.2.2.43.35.7.46.27.12.55.17.86.17Z"/>
        <path class="cls-4" d="m226.66,120.82c-.1.29-.24.55-.42.79-.18.24-.39.44-.62.62s-.49.3-.77.4c-.28.09-.57.14-.87.14-.41,0-.79-.08-1.15-.23-.35-.15-.66-.36-.92-.62-.26-.26-.47-.57-.62-.92-.15-.35-.23-.74-.23-1.15s.07-.78.22-1.13c.15-.35.35-.65.61-.91s.56-.46.91-.61c.35-.15.72-.22,1.12-.22s.77.08,1.13.23c.35.15.66.36.93.61.27.26.48.55.63.9.15.34.23.71.23,1.09,0,.05,0,.11,0,.16,0,.05-.02.1-.03.16h-4.99c.01.27.08.52.2.76.12.24.28.45.47.63.19.18.42.32.67.42s.53.15.81.15c.21,0,.41-.03.61-.09s.38-.15.55-.26c.17-.11.32-.24.45-.4.13-.15.24-.33.32-.51h.78Zm-.61-1.37c-.13-.55-.38-.99-.76-1.3-.38-.32-.84-.47-1.38-.47-.26,0-.51.04-.74.13-.23.08-.44.21-.62.36-.18.16-.33.35-.46.57s-.21.46-.27.72h4.23Z"/>
        <path class="cls-4" d="m233.33,121.01c-.32.6-.7,1.04-1.14,1.33-.44.29-.96.43-1.57.43-.42,0-.82-.07-1.19-.22-.37-.15-.69-.35-.95-.62-.27-.26-.48-.57-.64-.92-.16-.35-.23-.73-.23-1.15s.08-.78.23-1.13c.15-.35.36-.65.63-.91s.58-.46.94-.61c.36-.15.75-.22,1.16-.22.32,0,.62.04.9.13s.54.2.78.36c.24.15.45.34.63.57.19.23.33.48.44.75h-.84c-.22-.36-.49-.64-.81-.83s-.7-.29-1.11-.29c-.31,0-.6.06-.86.17-.27.12-.5.27-.69.47-.2.2-.35.43-.46.7-.11.27-.17.56-.17.87s.06.6.17.86c.11.27.27.5.47.7.2.2.44.35.71.47.27.12.56.17.87.17.4,0,.74-.08,1.03-.25.29-.16.57-.44.86-.82h.85Z"/>
        <path class="cls-4" d="m234.36,117.12h.75v2.37h3.31v-2.37h.75v5.52h-.75v-2.47h-3.31v2.47h-.75v-5.52Z"/>
        <path class="cls-4" d="m240.44,117.12h.75v2.21h1.53c.28,0,.54.04.77.12.23.08.43.19.6.34.16.15.29.32.39.53s.14.43.14.67-.05.47-.14.67c-.09.21-.22.38-.39.53-.17.14-.36.26-.6.34s-.49.12-.77.12h-2.27v-5.52Zm2.08,4.85c.89,0,1.33-.33,1.33-.98s-.44-.98-1.33-.98h-1.33v1.96h1.33Zm2.76-4.85h.75v5.52h-.75v-5.52Z"/>
        <path class="cls-4" d="m247.3,117.12h.75v4.46l3.36-4.46h.75v5.52h-.75v-4.46l-3.36,4.46h-.75v-5.52Zm1.64-2.01c0,.57.26.85.79.85s.79-.28.79-.85h.75c-.07.43-.24.76-.5.98s-.6.33-1.04.33-.78-.11-1.04-.33c-.26-.22-.43-.55-.5-.98h.75Z"/>
        <path class="cls-4" d="m261.73,121.01c-.32.6-.7,1.04-1.14,1.33-.44.29-.96.43-1.57.43-.42,0-.82-.07-1.19-.22-.37-.15-.69-.35-.95-.62-.27-.26-.48-.57-.64-.92-.16-.35-.23-.73-.23-1.15s.08-.78.23-1.13c.15-.35.36-.65.63-.91s.58-.46.94-.61c.36-.15.75-.22,1.16-.22.32,0,.62.04.9.13s.54.2.78.36c.24.15.45.34.63.57.19.23.33.48.44.75h-.84c-.22-.36-.49-.64-.81-.83s-.7-.29-1.11-.29c-.31,0-.6.06-.86.17-.27.12-.5.27-.69.47-.2.2-.35.43-.46.7-.11.27-.17.56-.17.87s.06.6.17.86c.11.27.27.5.47.7.2.2.44.35.71.47.27.12.56.17.87.17.4,0,.74-.08,1.03-.25.29-.16.57-.44.86-.82h.85Z"/>
        <path class="cls-4" d="m262.55,119.88c0-.42.07-.8.22-1.16.14-.36.35-.66.61-.92s.57-.46.93-.6c.36-.14.75-.22,1.17-.22s.78.07,1.13.22c.35.15.65.35.9.61.25.26.45.57.6.92.14.35.22.74.22,1.16s-.07.79-.21,1.15c-.14.35-.34.66-.59.91-.25.26-.55.46-.89.6-.35.15-.72.22-1.13.22-.42,0-.82-.07-1.18-.22-.36-.14-.67-.35-.93-.61-.26-.26-.47-.56-.62-.92-.15-.35-.22-.74-.22-1.15Zm2.93,2.2c.3,0,.58-.05.84-.16.26-.11.47-.26.66-.45.18-.19.33-.42.43-.69.1-.27.16-.56.16-.88s-.05-.62-.16-.9c-.1-.28-.25-.51-.44-.71s-.42-.35-.68-.46c-.26-.11-.55-.17-.86-.17s-.58.06-.84.17c-.26.11-.48.27-.67.46-.19.2-.33.44-.44.71-.11.27-.16.57-.16.88s.05.61.16.87c.11.27.26.5.45.69s.43.35.69.46c.27.11.55.17.86.17Z"/>
        <path class="cls-4" d="m269.38,117.12h.75v2.37h3.31v-2.37h.75v5.52h-.75v-2.47h-3.31v2.47h-.75v-5.52Z"/>
      </g>
    </g>
    <g>
      <rect class="cls-6" x="123.35" y="75.11" width="16.3" height="16.14" rx="1.97" ry="1.97"/>
      <path class="cls-4" d="m131.76,78.7h1.11l-1.6,8.62h-1.11l1.6-8.62Z"/>
    </g>
    <g>
      <rect class="cls-6" x="142.8" y="75.11" width="16.3" height="16.14" rx="1.97" ry="1.97"/>
      <g>
        <path class="cls-4" d="m149.64,78.7v5.4c0,1.55.61,2.33,1.82,2.33s1.82-.78,1.82-2.33v-5.4h1.11v5.4c0,1.08-.25,1.91-.76,2.5-.51.58-1.23.87-2.17.87s-1.65-.29-2.16-.87c-.51-.58-.76-1.42-.76-2.5v-5.4h1.11Z"/>
        <path class="cls-4" d="m147.66,88.82v-.79h7.58v.79h-7.58Z"/>
      </g>
    </g>
    <g>
      <rect class="cls-6" x="168.19" y="75.11" width="16.3" height="16.14" rx="1.97" ry="1.97"/>
      <g>
        <g>
          <circle class="cls-4" cx="172.2" cy="79.79" r="1.09"/>
          <line class="cls-3" x1="174.5" y1="79.79" x2="181.57" y2="79.79"/>
        </g>
        <g>
          <circle class="cls-4" cx="172.2" cy="83.06" r="1.09"/>
          <line class="cls-3" x1="174.5" y1="83.06" x2="181.57" y2="83.06"/>
        </g>
        <g>
          <circle class="cls-4" cx="172.2" cy="86.32" r="1.09"/>
          <line class="cls-3" x1="174.5" y1="86.32" x2="181.57" y2="86.32"/>
        </g>
      </g>
    </g>
    <g>
      <rect class="cls-6" x="186.6" y="75.11" width="16.3" height="16.14" rx="1.97" ry="1.97"/>
      <g>
        <g>
          <line class="cls-3" x1="192.9" y1="79.8" x2="199.98" y2="79.8"/>
          <path class="cls-4" d="m190.33,78.92h-.27v-.36h.65v2.14h-.38v-1.78Z"/>
        </g>
        <g>
          <line class="cls-3" x1="192.9" y1="83.07" x2="199.98" y2="83.07"/>
          <path class="cls-4" d="m189.76,83.63l.76-.72c.09-.08.15-.16.19-.22s.06-.13.06-.2c0-.05,0-.09-.02-.13-.02-.04-.04-.08-.07-.11-.03-.03-.06-.05-.1-.07s-.08-.03-.12-.03c-.1,0-.18.04-.24.12-.06.08-.09.18-.09.31h-.38c0-.12.02-.23.05-.32.03-.09.08-.18.14-.24s.14-.12.22-.16c.09-.04.19-.05.29-.05.1,0,.19.02.28.05.08.04.16.08.22.15s.11.14.15.22c.03.08.05.18.05.28,0,.07,0,.13-.02.18-.01.06-.04.11-.07.17-.03.06-.08.11-.13.17-.05.06-.12.12-.2.2l-.44.4h.84v.36h-1.38v-.34Z"/>
        </g>
        <g>
          <line class="cls-3" x1="192.9" y1="86.34" x2="199.98" y2="86.34"/>
          <path class="cls-4" d="m190.09,86.58c.01.1.05.19.11.24s.14.09.23.09.18-.03.24-.1c.06-.07.09-.15.09-.26,0-.11-.04-.2-.11-.26s-.18-.1-.31-.1h-.06v-.37h.03c.1,0,.17-.02.22-.06.05-.04.08-.09.08-.16,0-.06-.02-.11-.05-.15-.03-.04-.08-.06-.14-.06-.1,0-.16.06-.18.19h-.39c.01-.17.07-.3.17-.4.1-.1.23-.15.4-.15.08,0,.16.01.23.04.07.03.13.07.18.12.05.05.09.11.12.18.03.07.04.15.04.23s-.01.15-.04.21c-.03.06-.07.11-.14.15.22.1.33.29.33.55,0,.1-.02.2-.05.29s-.09.16-.15.23-.14.11-.23.15c-.09.04-.18.05-.29.05s-.2-.02-.29-.05c-.09-.03-.16-.08-.23-.14-.06-.06-.12-.13-.16-.22-.04-.08-.06-.18-.07-.28h.39Z"/>
        </g>
      </g>
    </g>
  </g>
  <g>
    <rect class="cls-1" x="206" y="11" width="131" height="60.47" rx="7.58" ry="7.58"/>
    <rect class="cls-1" x="263.04" y="59.55" width="16.92" height="16.92" transform="translate(511.57 -75.88) rotate(135)"/>
  </g>
  <g>
    <path class="cls-2" d="m223.75,34.98h1.15l4.34-10.13h1.27l4.34,10.13h1.15v3.06h-.78l-.42-2.05h-9.83l-.42,2.05h-.78v-3.06Zm9.91,0l-3.78-8.87-3.78,8.87h7.57Z"/>
    <path class="cls-2" d="m236.9,31.87c0-.62.11-1.2.32-1.73.22-.53.52-.99.91-1.37s.85-.68,1.39-.9c.53-.22,1.12-.32,1.75-.32s1.16.11,1.68.33c.52.22.96.53,1.34.91.38.39.67.84.89,1.37.22.53.32,1.1.32,1.73s-.11,1.18-.32,1.71c-.21.53-.5.98-.87,1.36-.37.38-.82.68-1.33.9s-1.08.32-1.68.32c-.63,0-1.22-.11-1.76-.32-.54-.22-1-.52-1.39-.9s-.7-.84-.92-1.37c-.22-.53-.33-1.1-.33-1.71Zm4.37,3.29c.45,0,.87-.08,1.25-.24.38-.16.71-.38.98-.67s.48-.63.64-1.03c.16-.4.23-.84.23-1.31s-.08-.93-.23-1.34c-.16-.41-.38-.76-.66-1.05-.29-.29-.62-.52-1.01-.69-.39-.17-.82-.25-1.29-.25s-.87.08-1.26.25c-.39.17-.72.4-1,.69-.28.3-.5.65-.66,1.06-.16.41-.24.85-.24,1.32s.08.91.24,1.3c.16.4.39.74.68,1.03.29.29.64.52,1.03.69.4.17.83.25,1.29.25Z"/>
    <path class="cls-2" d="m247.89,29.7c.28-.67.74-1.2,1.37-1.58s1.38-.57,2.23-.57c.57,0,1.11.11,1.6.33.49.22.92.53,1.3.92.37.39.66.85.87,1.37s.32,1.08.32,1.69-.11,1.19-.33,1.72c-.22.53-.53.99-.91,1.37-.39.38-.85.68-1.38.9-.53.22-1.11.33-1.73.33-1.42,0-2.5-.43-3.23-1.28s-1.11-2.11-1.11-3.77v-.45c0-2.02.37-3.54,1.12-4.55.75-1.01,1.91-1.59,3.49-1.72l3.51-.3v1.03l-3.42.32c-2.43.22-3.68,1.63-3.74,4.24h.05Zm3.3,5.47c.46,0,.89-.08,1.29-.26s.74-.41,1.03-.7c.29-.3.52-.65.69-1.06s.25-.85.25-1.32-.08-.89-.25-1.29c-.17-.4-.39-.74-.68-1.03-.29-.29-.63-.52-1.03-.69-.4-.17-.83-.25-1.29-.25s-.87.08-1.27.25-.73.39-1.02.69c-.29.29-.51.64-.68,1.03-.17.4-.25.83-.25,1.29s.08.93.24,1.33c.16.41.38.76.67,1.06.29.3.62.53,1.01.69.39.17.81.25,1.27.25Z"/>
    <path class="cls-2" d="m256.84,31.89c0-.62.11-1.2.33-1.73.22-.53.53-.98.91-1.37.39-.39.85-.69,1.38-.91.53-.22,1.11-.33,1.72-.33.72,0,1.34.13,1.85.39.51.26.98.68,1.4,1.27v-1.46h1.12v8.25h-1.12v-1.45c-.22.29-.44.54-.67.75s-.46.38-.72.51c-.25.13-.52.23-.81.29-.29.06-.61.09-.96.09-.63,0-1.22-.11-1.76-.32-.54-.22-1.01-.51-1.41-.9-.4-.38-.71-.84-.93-1.36-.22-.53-.33-1.1-.33-1.71Zm1.13-.04c0,.46.08.89.26,1.3.17.4.4.75.7,1.06s.65.54,1.05.71.83.26,1.28.26.87-.08,1.26-.26c.39-.17.72-.41,1.01-.7.29-.3.51-.65.67-1.06s.24-.84.24-1.3-.08-.91-.25-1.3c-.17-.4-.39-.74-.69-1.03-.29-.29-.64-.52-1.03-.69-.4-.17-.83-.25-1.3-.25-.44,0-.86.09-1.24.26-.39.17-.73.4-1.02.7-.29.3-.52.64-.69,1.04-.17.4-.25.82-.25,1.27Z"/>
    <path class="cls-2" d="m267.46,27.74h3.3c.89,0,1.59.19,2.1.57.5.38.75.92.75,1.6,0,.33-.11.65-.32.96-.21.31-.48.54-.8.68,1.03.38,1.54,1.04,1.54,1.98,0,.36-.08.69-.23.99s-.36.56-.63.78c-.27.22-.59.39-.96.51-.37.12-.78.18-1.22.18h-3.53v-8.25Zm3.12,3.41c.63,0,1.12-.11,1.46-.32.34-.22.5-.52.5-.91,0-.77-.65-1.16-1.96-1.16h-2.01v2.4h2.01Zm.12,3.83c.71,0,1.26-.12,1.64-.37s.57-.61.57-1.08c0-.92-.73-1.37-2.2-1.37h-2.13v2.82h2.13Z"/>
    <path class="cls-2" d="m278.19,27.74h1.25l3.54,8.25h-1.18l-2.99-6.98-3,6.98h-1.18l3.54-8.25Z"/>
    <path class="cls-2" d="m285.58,32.57c-.62-.14-1.11-.42-1.47-.84-.36-.42-.54-.93-.54-1.52,0-.36.07-.69.21-1s.33-.56.58-.78c.25-.22.54-.38.89-.51.35-.12.73-.18,1.15-.18h3.32v8.25h-1.12v-3.33h-1.82l-2.32,3.33h-1.27l2.38-3.42Zm3.03-3.81h-1.91c-1.33,0-1.99.48-1.99,1.45s.66,1.45,1.99,1.45h1.91v-2.89Z"/>
    <path class="cls-2" d="m291.63,27.74h1.12v6.66l5.02-6.66h1.12v8.25h-1.12v-6.66l-5.02,6.66h-1.12v-8.25Zm2.44-3c0,.84.39,1.27,1.18,1.27s1.18-.42,1.18-1.27h1.12c-.11.64-.36,1.13-.75,1.46-.39.33-.9.5-1.55.5s-1.16-.17-1.55-.5c-.39-.33-.64-.82-.75-1.46h1.12Z"/>
    <path class="cls-2" d="m302.18,28.75h-2.17v-1.01h5.43v1.01h-2.14v7.24h-1.12v-7.24Z"/>
    <path class="cls-2" d="m314.62,33.27c-.15.43-.36.83-.63,1.18-.27.36-.58.66-.93.92-.35.26-.74.46-1.15.6s-.85.21-1.3.21c-.61,0-1.18-.11-1.71-.34-.53-.23-.99-.54-1.38-.93-.39-.39-.7-.85-.93-1.38-.23-.53-.34-1.1-.34-1.71s.11-1.16.33-1.68.53-.97.91-1.36c.39-.39.84-.69,1.36-.91.52-.22,1.07-.33,1.67-.33s1.15.11,1.68.34c.53.23.99.53,1.39.91.4.38.71.83.94,1.34.23.51.35,1.06.35,1.63,0,.08,0,.16-.02.23-.01.08-.03.15-.05.23h-7.45c.02.4.12.78.3,1.14.18.36.41.67.7.93s.62.47,1,.63c.38.15.78.23,1.21.23.31,0,.62-.04.91-.14.3-.09.57-.22.82-.38.25-.17.47-.36.67-.59.2-.23.35-.49.47-.77h1.16Zm-.9-2.05c-.19-.82-.57-1.47-1.14-1.95s-1.25-.71-2.06-.71c-.39,0-.76.06-1.11.19-.35.13-.66.31-.93.54s-.5.52-.69.84c-.19.33-.32.69-.4,1.08h6.32Z"/>
    <path class="cls-2" d="m225.83,51.44c.03.29.16.53.38.72.22.19.49.28.81.28s.6-.1.82-.29c.23-.19.34-.43.34-.71,0-.38-.13-.65-.38-.8-.26-.15-.7-.23-1.33-.23v-1.33c.54,0,.93-.07,1.15-.22s.34-.38.34-.72c0-.23-.09-.42-.27-.58-.18-.16-.4-.23-.66-.23s-.48.07-.67.22c-.19.15-.3.34-.35.6h-1.88c.03-.38.12-.73.28-1.05.16-.32.36-.6.63-.84.26-.24.56-.42.9-.55.34-.13.71-.2,1.1-.2s.78.07,1.12.2c.35.14.65.32.91.57.26.24.47.52.62.84.15.32.23.66.23,1.03s-.11.68-.33.96c-.22.28-.51.46-.86.54v.04c.21.05.41.13.59.25.18.12.34.25.47.41.14.16.24.33.32.51.08.19.11.38.11.57,0,.39-.08.76-.25,1.1s-.39.64-.69.9c-.29.26-.63.46-1.01.61-.38.15-.79.23-1.24.23s-.82-.07-1.19-.22c-.37-.15-.7-.35-.99-.6-.29-.26-.52-.56-.69-.9-.18-.34-.28-.71-.31-1.12h1.99Z"/>
    <path class="cls-2" d="m231.11,49.93c0-.63.11-1.22.32-1.76.21-.54.5-1,.88-1.39.38-.39.83-.7,1.35-.92.52-.22,1.09-.33,1.7-.33s1.12.1,1.55.31c.43.21.82.54,1.18,1v-1.12h1.84v8.35h-1.84v-1.09c-.4.46-.82.79-1.24.99-.43.2-.94.29-1.53.29s-1.18-.11-1.69-.32c-.51-.22-.96-.52-1.33-.91-.37-.39-.66-.84-.87-1.37-.21-.53-.32-1.11-.32-1.74Zm2.02.04c0,.36.06.69.18,1,.12.3.29.56.5.78.22.22.48.38.78.51.31.12.64.18,1,.18s.69-.06.99-.18c.3-.12.55-.29.77-.51.22-.22.38-.49.5-.79s.17-.65.17-1.02-.06-.73-.18-1.04-.29-.58-.51-.81c-.22-.23-.48-.4-.79-.53-.31-.12-.64-.19-1-.19s-.68.07-.97.2c-.3.13-.55.31-.76.54-.21.23-.38.5-.5.82-.12.32-.18.67-.18,1.05Z"/>
    <path class="cls-2" d="m241.56,45.73h2.29l2.52,4.28,2.52-4.28h2.29v8.35h-2v-5.52l-2.22,3.78h-1.18l-2.22-3.78v5.52h-2.01v-8.35Z"/>
    <path class="cls-2" d="m260.92,51.61c-.12.39-.31.75-.57,1.08-.26.33-.57.61-.92.84-.35.24-.74.42-1.16.55-.42.13-.86.2-1.33.2-.63,0-1.23-.11-1.78-.33s-1.03-.53-1.44-.92c-.41-.39-.73-.85-.96-1.38-.23-.53-.35-1.1-.35-1.71s.11-1.19.34-1.73c.23-.54.54-1,.94-1.4.4-.4.86-.71,1.4-.94.54-.23,1.11-.34,1.73-.34s1.2.11,1.73.34c.53.23.98.54,1.36.94.38.4.68.87.9,1.42.22.55.32,1.15.32,1.8,0,.16,0,.29-.02.4-.01.11-.03.23-.06.37h-6.47c.12.51.38.92.79,1.21.41.29.91.44,1.52.44.42,0,.77-.06,1.04-.19s.54-.34.8-.64h2.19Zm-1.76-2.58c-.13-.54-.39-.96-.78-1.24s-.9-.42-1.52-.42-1.1.14-1.49.42-.67.69-.83,1.24h4.63Z"/>
    <path class="cls-2" d="m263.76,47.55h-1.94v-1.82h5.9v1.82h-1.94v6.53h-2.01v-6.53Z"/>
    <path class="cls-2" d="m268.8,45.73h2.01v3.84l2.9-3.84h2.43l-3.33,4.15,3.51,4.21h-2.61l-2.9-3.84v3.84h-2.01v-8.35Z"/>
    <path class="cls-2" d="m277.15,45.73h1.99v5.52l3.74-5.52h2.04v8.35h-1.99v-5.52l-3.74,5.52h-2.04v-8.35Z"/>
    <path class="cls-2" d="m290.16,53.07h1.07l3.09-7.24h1.27l3.09,7.24h1.07v2.91h-.77l-.41-1.9h-7.24l-.41,1.9h-.77v-2.91Zm7.34,0l-2.55-5.97-2.55,5.97h5.1Z"/>
    <path class="cls-2" d="m300.96,45.83h1.12v3.54h4.95v-3.54h1.12v8.25h-1.12v-3.69h-4.95v3.69h-1.12v-8.25Z"/>
    <path class="cls-2" d="m311.6,50.66c-.62-.14-1.11-.42-1.47-.84-.36-.42-.54-.93-.54-1.52,0-.36.07-.69.21-1,.14-.3.33-.56.58-.78.25-.22.54-.38.89-.5.35-.12.73-.18,1.15-.18h3.32v8.25h-1.12v-3.33h-1.82l-2.32,3.33h-1.27l2.38-3.42Zm3.03-3.81h-1.91c-1.33,0-1.99.48-1.99,1.45s.66,1.45,1.99,1.45h1.91v-2.89Z"/>
  </g>
</svg>